<?xml version="1.0" standalone="no"?>
<svg version="1.0" xmlns="http://www.w3.org/2000/svg"
 width="120.000000pt" height="120.000000pt" viewBox="0 0 120.000000 120.000000"
 >


<g transform="translate(0.000000,120.000000) scale(0.023438,-0.023438)"
fill="#dc3545" stroke="none">
<path d="M1690 4642 l0 -317 -75 -24 c-363 -112 -677 -428 -798 -802 l-24 -74
-317 -3 -316 -2 0 -875 0 -875 321 -2 320 -3 21 -60 c122 -364 437 -676 793
-786 l75 -24 0 -317 0 -318 875 0 875 0 0 319 0 318 67 22 c308 101 580 336
723 626 27 55 58 127 69 160 l20 60 320 3 321 2 0 875 0 875 -316 2 -317 3
-24 75 c-118 369 -426 679 -796 801 l-67 22 0 318 0 319 -875 0 -875 0 0 -318z
m1648 -549 l2 -763 758 -2 757 -3 0 -770 0 -770 -757 -3 -758 -2 -2 -758 -3
-757 -770 0 -770 0 -3 757 -2 758 -763 2 -762 3 0 770 0 770 763 3 762 2 0
758 c0 417 3 762 7 765 3 4 351 6 772 5 l766 -3 3 -762z"/>
<path d="M2454 4565 c-254 -55 -427 -309 -385 -562 37 -217 204 -381 421 -414
322 -50 611 239 561 561 -32 209 -185 372 -390 416 -80 17 -127 17 -207 -1z"/>
<path d="M914 3035 c-254 -55 -427 -309 -385 -562 37 -217 204 -381 421 -414
322 -50 611 239 561 561 -32 209 -185 372 -390 416 -80 17 -127 17 -207 -1z"/>
<path d="M4004 3035 c-254 -55 -427 -309 -385 -562 37 -217 204 -381 421 -414
322 -50 611 239 561 561 -32 209 -185 372 -390 416 -80 17 -127 17 -207 -1z"/>
<path d="M2454 1515 c-254 -55 -427 -309 -385 -562 37 -217 204 -381 421 -414
322 -50 611 239 561 561 -32 209 -185 372 -390 416 -80 17 -127 17 -207 -1z"/>
</g>
</svg>
